<svg width="29" height="29" viewBox="0 0 29 29" fill="none" xmlns="http://www.w3.org/2000/svg">
<circle cx="14.5" cy="14.5" r="14.5" fill="#F36523"/>
<path d="M21.6523 12.0836H21.6038V10.8977C21.6038 7.0882 18.5157 4 14.7062 4C10.8966 4 7.80847 7.0882 7.80847 10.8977V12.0836H7.51805C6.45314 12.0836 5.63027 13.0275 5.63027 14.1166V17.1419C5.60345 18.1975 6.43748 19.075 7.49309 19.1018C7.50142 19.1021 7.50972 19.1022 7.51805 19.1023H9.30902C9.5627 19.0904 9.7587 18.875 9.74675 18.6214C9.74633 18.6122 9.74563 18.6031 9.74466 18.594V12.6644C9.74466 12.374 9.57525 12.0836 9.30902 12.0836H8.77656V10.8976C8.77656 7.62284 11.4314 4.96805 14.7062 4.96805C17.981 4.96805 20.6357 7.62284 20.6357 10.8976V12.0836H20.1033C19.8371 12.0836 19.6676 12.374 19.6676 12.6644V18.594C19.6406 18.8465 19.8234 19.0732 20.076 19.1002C20.085 19.1011 20.0942 19.1018 20.1033 19.1022H20.6599L20.6115 19.1748C19.8853 20.14 18.7457 20.7053 17.5378 20.6996C17.2734 19.403 16.0079 18.5662 14.7113 18.8307C13.6025 19.0568 12.8031 20.0279 12.7941 21.1594C12.8074 22.4867 13.8871 23.5556 15.2144 23.5555C15.8714 23.5448 16.4977 23.2752 16.9569 22.8052C17.2668 22.4879 17.4699 22.0817 17.5378 21.6434C19.0504 21.6492 20.4769 20.9404 21.386 19.7315L21.8458 19.0538C22.8865 18.9812 23.54 18.3277 23.54 17.3838V14.3585C23.54 13.3179 22.7656 12.0836 21.6523 12.0836ZM8.77656 18.1342H7.51805C6.9969 18.1215 6.5847 17.6888 6.59739 17.1676C6.59762 17.1591 6.59795 17.1505 6.59837 17.1419V14.1166C6.59837 13.5599 6.9856 13.0517 7.51805 13.0517H8.77656V18.1342V18.1342ZM16.2551 22.1276C15.9869 22.4184 15.61 22.585 15.2144 22.5875C14.427 22.575 13.788 21.9466 13.7623 21.1595C13.762 20.3709 14.401 19.7313 15.1896 19.731C15.9783 19.7306 16.6178 20.3697 16.6182 21.1583C16.6182 21.1587 16.6182 21.1591 16.6182 21.1595C16.6383 21.5188 16.5066 21.8701 16.2551 22.1276ZM22.5719 17.3839C22.5719 18.0374 21.9427 18.1342 21.6523 18.1342H20.6357V13.0517H21.6523C22.1847 13.0517 22.5719 13.802 22.5719 14.3586V17.3839Z" fill="white"/>
</svg>
