<svg width="50" height="50" viewBox="0 0 50 50" fill="none" xmlns="http://www.w3.org/2000/svg">
<path d="M47 22C47 9.84973 37.1503 0 25 0C12.8497 0 3 9.84973 3 22C3 32.9807 11.045 42.0823 21.5625 43.7327V28.3594H15.9766V22H21.5625V17.1531C21.5625 11.6394 24.847 8.59375 29.8722 8.59375C32.2785 8.59375 34.7969 9.02344 34.7969 9.02344V14.4375H32.0228C29.29 14.4375 28.4375 16.1335 28.4375 17.875V22H34.5391L33.5637 28.3594H28.4375V43.7327C38.955 42.0823 47 32.9807 47 22Z" fill="white"/>
<path d="M33.5637 28.3594L34.5391 22H28.4375V17.875C28.4375 16.1352 29.29 14.4375 32.0228 14.4375H34.7969V9.02344C34.7969 9.02344 32.2793 8.59375 29.8722 8.59375C24.847 8.59375 21.5625 11.6394 21.5625 17.1531V22H15.9766V28.3594H21.5625V43.7327C23.8403 44.0891 26.1597 44.0891 28.4375 43.7327V28.3594H33.5637Z" fill="#1877F2"/>
<circle cx="25" cy="25" r="24.5" stroke="#EEEEF6"/>
</svg>
