<svg width="24" height="24" viewBox="0 0 24 24" fill="none" xmlns="http://www.w3.org/2000/svg">
<circle cx="12" cy="12" r="1.16667" stroke="#979797" stroke-width="2"/>
<ellipse cx="12" cy="12" rx="8.16667" ry="8.16667" stroke="#979797" stroke-width="2" stroke-linecap="round" stroke-linejoin="round"/>
<path d="M3.08736 5.79228C2.75587 5.32819 2.80848 4.69248 3.21176 4.28921L4.28894 3.21202C4.69221 2.80875 5.32793 2.75614 5.79201 3.08762L7.87514 4.57557L4.57531 7.8754L3.08736 5.79228Z" fill="#979797"/>
<path d="M20.9127 18.2078C21.2442 18.6719 21.1915 19.3076 20.7883 19.7109L19.7111 20.7881C19.3078 21.1914 18.6721 21.244 18.208 20.9125L16.1249 19.4245L19.4247 16.1247L20.9127 18.2078Z" fill="#979797"/>
<path d="M18.2079 3.08744C18.672 2.75595 19.3077 2.80857 19.711 3.21184L20.7882 4.28902C21.1915 4.6923 21.2441 5.32801 20.9126 5.79209L19.4246 7.87522L16.1248 4.57539L18.2079 3.08744Z" fill="#979797"/>
<path d="M5.79209 20.9126C5.32801 21.2441 4.6923 21.1915 4.28902 20.7882L3.21184 19.711C2.80857 19.3077 2.75595 18.672 3.08744 18.2079L4.57539 16.1248L7.87522 19.4246L5.79209 20.9126Z" fill="#979797"/>
<path d="M22.6918 10.0875C23.2544 10.1813 23.6667 10.668 23.6667 11.2383V12.7617C23.6667 13.332 23.2544 13.8187 22.6918 13.9125L20.1667 14.3333V9.66668L22.6918 10.0875Z" fill="#979797"/>
<path d="M1.30821 13.9125C0.745658 13.8187 0.333343 13.332 0.333344 12.7617L0.333344 11.2383C0.333344 10.668 0.745659 10.1813 1.30821 10.0875L3.83334 9.66668L3.83334 14.3333L1.30821 13.9125Z" fill="#979797"/>
<path d="M10.0875 1.30821C10.1813 0.745659 10.668 0.333344 11.2383 0.333344H12.7617C13.332 0.333344 13.8187 0.745659 13.9125 1.30821L14.3333 3.83334H9.66668L10.0875 1.30821Z" fill="#979797"/>
<path d="M13.9125 22.6918C13.8187 23.2544 13.332 23.6667 12.7617 23.6667H11.2383C10.668 23.6667 10.1813 23.2544 10.0875 22.6918L9.66668 20.1667H14.3333L13.9125 22.6918Z" fill="#979797"/>
</svg>
