<svg width="25" height="24" viewBox="0 0 25 24" fill="none" xmlns="http://www.w3.org/2000/svg">
<path d="M1.625 10.2917L12.5 1.83334L23.375 10.2917" stroke="#6FCF97" stroke-width="2" stroke-linecap="round" stroke-linejoin="round"/>
<path d="M5.04169 8.47919C5.04169 7.9269 4.59397 7.47919 4.04169 7.47919C3.4894 7.47919 3.04169 7.9269 3.04169 8.47919H5.04169ZM4.04169 22.375H3.04169C3.04169 22.9273 3.4894 23.375 4.04169 23.375V22.375ZM20.9584 22.375V23.375C21.5106 23.375 21.9584 22.9273 21.9584 22.375H20.9584ZM21.9584 9.08335C21.9584 8.53107 21.5106 8.08335 20.9584 8.08335C20.4061 8.08335 19.9584 8.53107 19.9584 9.08335H21.9584ZM13.7084 17.5417H14.7084C14.7084 16.9894 14.2606 16.5417 13.7084 16.5417V17.5417ZM11.2917 17.5417V16.5417C10.7394 16.5417 10.2917 16.9894 10.2917 17.5417H11.2917ZM3.04169 8.47919V22.375H5.04169V8.47919H3.04169ZM21.9584 22.375V9.08335H19.9584V22.375H21.9584ZM14.7084 22.375V17.5417H12.7084V22.375H14.7084ZM20.9584 21.375H13.7084V23.375H20.9584V21.375ZM13.7084 16.5417H11.2917V18.5417H13.7084V16.5417ZM4.04169 23.375H11.2917V21.375H4.04169V23.375ZM11.2917 23.375H13.7084V21.375H11.2917V23.375ZM10.2917 17.5417V22.375H12.2917V17.5417H10.2917Z" fill="#6FCF97"/>
</svg>
