<svg width="25" height="24" viewBox="0 0 25 24" fill="none" xmlns="http://www.w3.org/2000/svg">
<path d="M1.625 10.2917L12.5 1.83334L23.375 10.2917" stroke="#979797" stroke-width="2" stroke-linecap="round" stroke-linejoin="round"/>
<path d="M5.04167 8.47919C5.04167 7.9269 4.59396 7.47919 4.04167 7.47919C3.48939 7.47919 3.04167 7.9269 3.04167 8.47919H5.04167ZM4.04167 22.375H3.04167C3.04167 22.9273 3.48939 23.375 4.04167 23.375V22.375ZM20.9583 22.375V23.375C21.5106 23.375 21.9583 22.9273 21.9583 22.375H20.9583ZM21.9583 9.08335C21.9583 8.53107 21.5106 8.08335 20.9583 8.08335C20.4061 8.08335 19.9583 8.53107 19.9583 9.08335H21.9583ZM13.7083 17.5417H14.7083C14.7083 16.9894 14.2606 16.5417 13.7083 16.5417V17.5417ZM11.2917 17.5417V16.5417C10.7394 16.5417 10.2917 16.9894 10.2917 17.5417H11.2917ZM3.04167 8.47919V22.375H5.04167V8.47919H3.04167ZM21.9583 22.375V9.08335H19.9583V22.375H21.9583ZM14.7083 22.375V17.5417H12.7083V22.375H14.7083ZM20.9583 21.375H13.7083V23.375H20.9583V21.375ZM13.7083 16.5417H11.2917V18.5417H13.7083V16.5417ZM4.04167 23.375H11.2917V21.375H4.04167V23.375ZM11.2917 23.375H13.7083V21.375H11.2917V23.375ZM10.2917 17.5417V22.375H12.2917V17.5417H10.2917Z" fill="#979797"/>
</svg>
