<svg width="22" height="24" viewBox="0 0 22 24" fill="none" xmlns="http://www.w3.org/2000/svg">
<path d="M19.6641 9.92079H19.6047V8.46534C19.6047 3.79007 15.8147 0 11.1394 0C6.46403 0 2.67401 3.79007 2.67401 8.46534V9.92079H2.3176C1.01066 9.92079 0.000772226 11.0792 0.000772226 12.4159V16.1287C-0.0321458 17.4242 0.991441 18.5011 2.28696 18.5341C2.29719 18.5344 2.30737 18.5345 2.3176 18.5346H4.51561C4.82694 18.52 5.06748 18.2557 5.05281 17.9444C5.0523 17.9332 5.05145 17.922 5.05026 17.9108V10.6336C5.05026 10.2772 4.84234 9.92073 4.51561 9.92073H3.86214V8.46529C3.86214 4.44621 7.12028 1.18806 11.1394 1.18806C15.1584 1.18806 18.4166 4.44621 18.4166 8.46529V9.92073H17.7631C17.4364 9.92073 17.2285 10.2771 17.2285 10.6336V17.9108C17.1953 18.2207 17.4197 18.4989 17.7296 18.532C17.7407 18.5332 17.7519 18.5341 17.7631 18.5346H18.4463L18.3868 18.6237C17.4956 19.8082 16.097 20.502 14.6146 20.4949C14.2901 18.9037 12.7369 17.8767 11.1457 18.2013C9.78488 18.4788 8.80377 19.6706 8.79279 21.0593C8.80905 22.6882 10.1342 24 11.7631 23.9999C12.5694 23.9868 13.338 23.6559 13.9017 23.0791C14.282 22.6896 14.5312 22.1912 14.6146 21.6533C16.4709 21.6604 18.2216 20.7905 19.3373 19.3068L19.9017 18.4751C21.1789 18.386 21.9809 17.584 21.9809 16.4256V12.7127C21.9809 11.4356 21.0305 9.92079 19.6641 9.92079ZM3.86214 17.3465H2.3176C1.678 17.3309 1.17212 16.7999 1.1877 16.1603C1.18798 16.1498 1.18838 16.1392 1.18889 16.1287V12.4158C1.18889 11.7326 1.66413 11.1089 2.3176 11.1089H3.86214V17.3465ZM13.0404 22.2475C12.7112 22.6044 12.2487 22.8088 11.7632 22.8119C10.7968 22.7965 10.0125 22.0254 9.98097 21.0594C9.98057 20.0915 10.7649 19.3066 11.7327 19.3062C12.7006 19.3058 13.4855 20.0901 13.4859 21.058C13.4859 21.0584 13.4859 21.0589 13.4859 21.0594C13.5107 21.5004 13.349 21.9315 13.0404 22.2475ZM20.7928 16.4257C20.7928 17.2277 20.0205 17.3465 19.6641 17.3465H18.4166V11.1089H19.6641C20.3176 11.1089 20.7928 12.0297 20.7928 12.7129V16.4257Z" fill="#979797"/>
</svg>
