<svg width="29" height="29" viewBox="0 0 29 29" fill="none" xmlns="http://www.w3.org/2000/svg">
<circle cx="14.5" cy="14.5" r="14.5" fill="#25D366"/>
<path d="M20.8438 8.32812C19.2422 6.6875 17.0547 5.75 14.7109 5.75C9.94531 5.75 6.03906 9.65625 6.03906 14.4219C6.03906 15.9844 6.46875 17.4688 7.21094 18.7578L6 23.25L10.5703 22.0781C11.8594 22.7422 13.2656 23.1328 14.7109 23.1328C19.5156 23.1328 23.5 19.2266 23.5 14.4609C23.5 12.1172 22.4844 9.96875 20.8438 8.32812ZM14.7109 21.6484C13.4219 21.6484 12.1719 21.2969 11.0391 20.6328L10.8047 20.4766L8.07031 21.2188L8.8125 18.5625L8.61719 18.2891C7.91406 17.1172 7.52344 15.7891 7.52344 14.4219C7.52344 10.4766 10.7656 7.23438 14.75 7.23438C16.6641 7.23438 18.4609 7.97656 19.8281 9.34375C21.1953 10.7109 22.0156 12.5078 22.0156 14.4609C22.0156 18.4062 18.6953 21.6484 14.7109 21.6484ZM18.6953 16.2578C18.4609 16.1406 17.4062 15.6328 17.2109 15.5547C17.0156 15.4766 16.8594 15.4375 16.7031 15.6719C16.5859 15.8672 16.1562 16.375 16.0391 16.5312C15.8828 16.6484 15.7656 16.6875 15.5703 16.5703C14.2812 15.9453 13.4609 15.4375 12.6016 13.9922C12.3672 13.6016 12.8359 13.6406 13.2266 12.8203C13.3047 12.6641 13.2656 12.5469 13.2266 12.4297C13.1875 12.3125 12.7188 11.2578 12.5625 10.8281C12.3672 10.3984 12.2109 10.4375 12.0547 10.4375C11.9375 10.4375 11.7812 10.4375 11.6641 10.4375C11.5078 10.4375 11.2734 10.4766 11.0781 10.7109C10.8828 10.9453 10.3359 11.4531 10.3359 12.5078C10.3359 13.6016 11.0781 14.6172 11.1953 14.7734C11.3125 14.8906 12.7188 17.0781 14.9062 18.0156C16.2734 18.6406 16.8203 18.6797 17.5234 18.5625C17.9141 18.5234 18.7734 18.0547 18.9688 17.5469C19.1641 17.0391 19.1641 16.6094 19.0859 16.5312C19.0469 16.4141 18.8906 16.375 18.6953 16.2578Z" fill="white"/>
</svg>
