<svg width="25" height="25" viewBox="0 0 25 25" fill="none" xmlns="http://www.w3.org/2000/svg">
<path d="M12.5 22.9167C6.74704 22.9167 2.08334 18.253 2.08334 12.5C2.08334 6.74704 6.74704 2.08334 12.5 2.08334C18.253 2.08334 22.9167 6.74704 22.9167 12.5C22.9104 18.2504 18.2504 22.9104 12.5 22.9167ZM12.5 4.16668C7.9223 4.16784 4.20257 7.86133 4.16901 12.4389C4.13545 17.0165 7.80062 20.7641 12.3778 20.8324C16.955 20.9007 20.7303 17.2641 20.8333 12.6875V14.5448V12.5C20.8282 7.89978 17.1002 4.17184 12.5 4.16668ZM12.5 17.7083L7.29168 12.5L12.5 7.29168L13.9688 8.76043L11.2813 11.4583H17.7083V13.5417H11.2813L13.9688 16.2396L12.5 17.7083Z" fill="#2E3A59"/>
</svg>
